<svg id="Layer_1" data-name="Layer 1" xmlns="http://www.w3.org/2000/svg" width="154.12mm" height="41.22mm" viewBox="0 0 436.88 116.84"><path d="M84.87,60h38.44V71.26h-13v67.83H97.87V71.26h-13Z" transform="translate(-65.15 -40.61)" style="fill:#35323b"/><path d="M147.82,139.09H135.39V60h12.43V93.87H162V60h12.66v79.14H162V105.17H147.82Z" transform="translate(-65.15 -40.61)" style="fill:#35323b"/><path d="M201.8,93.3h17.07v11.31H201.8v23.17h21.48v11.31H189.37V60h33.91V71.26H201.8Z" transform="translate(-65.15 -40.61)" style="fill:#35323b"/><path d="M241.05,41.73V156.34H500.93V41.73Zm51.44,29.53h-13v67.83H267.05V71.26h-13V60h38.44Zm35.95,67.83-2.15-14.36H311l-2.15,14.36H297.46L310.13,60h18.2L341,139.09ZM384,134.85Q379.3,140,370.14,140t-13.85-5.14q-4.69-5.15-4.7-14.76v-4.86h11.76v5.66q0,4.29,1.75,6a7.37,7.37,0,0,0,9.39,0q1.75-1.69,1.75-6a14,14,0,0,0-1.81-7.18,29.88,29.88,0,0,0-4.52-5.88c-1.81-1.85-3.75-3.69-5.82-5.54a53.78,53.78,0,0,1-5.82-6.05,30.76,30.76,0,0,1-4.53-7.46,24.76,24.76,0,0,1-1.81-9.84q0-9.6,4.58-14.75t13.74-5.14q9.15,0,13.73,5.14t4.58,14.75v2.49H376.8V78.15q0-4.29-1.63-6a6.84,6.84,0,0,0-9.16,0q-1.63,1.76-1.64,6a14,14,0,0,0,1.81,7.18,29.5,29.5,0,0,0,4.52,5.88c1.81,1.85,3.75,3.69,5.82,5.54a54.76,54.76,0,0,1,5.83,6,31,31,0,0,1,4.52,7.46,24.75,24.75,0,0,1,1.8,9.83Q388.67,129.7,384,134.85Zm49.86-63.59h-13v67.83H408.41V71.26h-13V60h38.43Zm48.67,0H461v22H478.1v11.31H461v23.17h21.48v11.31H448.6V60h33.91Z" transform="translate(-65.15 -40.61)" style="fill:#35323b"/><path d="M502,157.46H239.94V40.61H502Zm-259.87-2.23H499.81V42.84H242.17Zm128-14.13c-6.41,0-11.34-1.85-14.67-5.5s-5-8.84-5-15.51v-6h14v6.77c0,2.53.48,4.28,1.42,5.19a6.24,6.24,0,0,0,7.83,0c.94-.91,1.42-2.66,1.42-5.19a13.05,13.05,0,0,0-1.66-6.63,29,29,0,0,0-4.36-5.65c-1.78-1.83-3.73-3.67-5.76-5.49A56.9,56.9,0,0,1,357.41,97a32,32,0,0,1-4.69-7.73,25.83,25.83,0,0,1-1.9-10.28c0-6.65,1.64-11.86,4.86-15.49s8.16-5.51,14.57-5.51,11.31,1.85,14.57,5.51,4.86,8.84,4.86,15.49v3.6h-14V78.15c0-2.55-.45-4.33-1.34-5.28a5.75,5.75,0,0,0-7.53,0c-.89,1-1.34,2.73-1.34,5.29a12.94,12.94,0,0,0,1.66,6.62,28.9,28.9,0,0,0,4.35,5.66c1.78,1.81,3.72,3.66,5.77,5.49a56.86,56.86,0,0,1,5.94,6.17,32.08,32.08,0,0,1,4.69,7.72,25.94,25.94,0,0,1,1.9,10.28c0,6.66-1.68,11.88-5,15.51h0C381.47,139.25,376.54,141.1,370.14,141.1Zm-17.43-24.75v3.74c0,6.09,1.48,10.81,4.4,14s7.27,4.78,13,4.78,10.13-1.61,13-4.78,4.4-7.92,4.4-14a23.67,23.67,0,0,0-1.72-9.39,29.82,29.82,0,0,0-4.35-7.19,54.32,54.32,0,0,0-5.71-5.93c-2.09-1.86-4.07-3.74-5.87-5.59a30.78,30.78,0,0,1-4.69-6.1,15.12,15.12,0,0,1-2-7.74c0-3.18.63-5.41,1.94-6.8a7.94,7.94,0,0,1,10.78,0c1.3,1.39,1.94,3.62,1.94,6.8v2.17h9.53V78.94c0-6.09-1.45-10.8-4.3-14s-7.16-4.77-12.9-4.77-10.09,1.61-12.91,4.77-4.29,7.92-4.29,14a23.87,23.87,0,0,0,1.71,9.4,30,30,0,0,0,4.36,7.19,55.31,55.31,0,0,0,5.71,5.93c2.07,1.85,4.05,3.73,5.87,5.59a31,31,0,0,1,4.69,6.09,15.26,15.26,0,0,1,2,7.75c0,3.2-.68,5.43-2.09,6.79a8.47,8.47,0,0,1-10.93,0c-1.41-1.36-2.09-3.58-2.09-6.79v-4.54ZM483.62,140.2H447.49V58.84h36.13V72.37H462.14V92.19h17.07v13.53H462.14v21h21.48ZM449.71,138H481.4v-9.08H459.92v-25.4H477V94.41H459.92V70.15H481.4V61.06H449.71ZM422,140.2H407.3V72.37h-13V58.84H435V72.37H422ZM409.52,138h10.21V70.15h13V61.06H396.52v9.09h13Zm-67.23,2.23H327.48l-2.15-14.36H312l-2.15,14.36H296.16l13-81.36h20.09ZM329.4,138h10.28l-12.3-76.91h-16.3L298.77,138h9.15l2.15-14.35h17.18Zm-48.8,2.23H265.94V72.37h-13V58.84H293.6V72.37h-13ZM268.16,138h10.21V70.15h13V61.06H255.16v9.09h13Z" transform="translate(-65.15 -40.61)" style="fill:#35323b"/><polygon points="247.46 73.37 259.44 73.37 253.45 33.35 247.46 73.37" style="fill:#35323b"/><path d="M325.89,115.1H311.32l7.28-48.65Zm-12-2.22h9.4l-4.7-31.4Z" transform="translate(-65.15 -40.61)" style="fill:#35323b"/><path d="M242.16,157.46h-177V40.61h177ZM67.38,155.23H239.94V42.84H67.38Z" transform="translate(-65.15 -40.61)" style="fill:#35323b"/></svg>